# xmcd CD database file
#
# Track frame offsets:
#	150
#	1515
#	17186
#	40663
#	58329
#	71799
#	86923
#	112218
#	128484
#	143665
#
# Disc length: 2188 seconds
#
# Revision: 0
# Processed by: cddbd v1.5PL3 Copyright (c) Steve Scherf et al.
# Submitted via: CDex 1.40Release
#
DISCID=85088a0a
DTITLE=cosP - THEME OF KOMBAT -Final Revenge-
DYEAR=2002
DGENRE=Instrumental
TTITLE0=introduction
TTITLE1=Theme of Combat -revenge mix-
TTITLE2=broken beats -revenge mix-
TTITLE3=beastly agony
TTITLE4=Dangerous Doctor
TTITLE5=Theme of Combat
TTITLE6=valence
TTITLE7=survivor ver.1.01
TTITLE8=fugitive pleasure ver.1.02
TTITLE9=theme of kombat
EXTD=YEAR: 2002 ID3G: 33
EXTT0=
EXTT1=
EXTT2=
EXTT3=
EXTT4=
EXTT5=
EXTT6=
EXTT7=
EXTT8=
EXTT9=
PLAYORDER=
